<svg version="1.1" xmlns="http://www.w3.org/2000/svg" xmlns:xlink="http://www.w3.org/1999/xlink" width="1683.000000pt" height="1476.000000pt" viewBox="0,0,256,224.5"><g fill="#355546" fill-rule="nonzero" stroke="none" stroke-width="1" stroke-linecap="butt" stroke-linejoin="miter" stroke-miterlimit="10" stroke-dasharray="" stroke-dashoffset="0" font-family="none" font-weight="none" font-size="none" text-anchor="none" style="mix-blend-mode: normal"><g transform="translate(1.69367,1.88004) scale(0.15211,0.15211)"><g transform="translate(0,1476) scale(0.1,-0.1)"><path d="M7960,12665c-332,-25 -737,-89 -990,-157c-630,-168 -1086,-375 -1648,-750c-247,-165 -434,-322 -708,-595c-304,-303 -453,-483 -709,-864c-148,-221 -370,-649 -465,-899c-186,-487 -250,-743 -316,-1255c-58,-456 -58,-774 1,-1290c31,-275 55,-404 111,-620c54,-208 171,-563 231,-705c175,-410 463,-875 808,-1305c96,-119 273,-291 286,-278c5,5 14,81 20,169c5,87 14,204 19,259c7,82 6,104 -5,120c-8,11 -22,30 -31,43c-30,41 -33,103 -23,447c5,187 11,800 11,1362l2,1023l-105,71c-119,82 -268,228 -317,312c-183,307 -206,683 -67,1053c14,36 53,104 87,152c79,110 255,292 322,334c28,17 98,61 156,98c135,86 257,151 345,183c120,45 393,107 465,107h45v318c0,313 0,319 28,437c35,150 118,321 228,468c175,237 512,452 789,504c89,17 200,18 1720,18c1749,0 1706,1 1875,-52c105,-33 278,-120 390,-197c211,-144 353,-320 460,-571c73,-169 84,-239 94,-598c5,-170 11,-310 13,-311c2,-1 55,-12 118,-25c148,-28 421,-118 548,-181c393,-192 628,-393 752,-645c34,-68 90,-239 121,-365c16,-64 10,-240 -10,-320c-72,-284 -106,-363 -218,-511c-79,-104 -103,-124 -250,-207c-33,-18 -72,-44 -88,-57l-30,-23v-1379c0,-1161 -2,-1382 -14,-1403c-8,-14 -30,-44 -49,-68l-35,-43l7,-182c6,-177 28,-412 39,-423c2,-3 14,11 26,30c12,19 53,63 90,98c85,79 180,189 259,298c34,47 87,119 119,161c90,118 156,208 179,242c83,123 186,294 216,359c20,42 54,103 76,135c21,32 87,155 145,273c123,250 202,472 292,825c86,335 133,647 150,980c7,138 -9,576 -26,735c-49,454 -181,972 -357,1405c-76,188 -197,431 -269,546c-33,52 -104,168 -158,259c-415,694 -1015,1307 -1650,1685c-201,120 -726,375 -905,439c-246,89 -620,196 -866,246c-396,82 -931,116 -1334,85zM7960,12196c0,-3 -4,-8 -10,-11c-5,-3 -10,-1 -10,4c0,6 5,11 10,11c6,0 10,-2 10,-4z"></path><path d="M6705,11149c-231,-21 -415,-95 -582,-235c-173,-145 -297,-342 -356,-564l-31,-115l-4,-392l-4,-393h-63c-73,0 -240,-31 -335,-61c-72,-24 -596,-277 -693,-336c-130,-78 -255,-223 -331,-384c-56,-117 -76,-205 -76,-322c1,-173 46,-334 128,-455c75,-110 256,-260 374,-311c25,-11 48,-23 51,-28c22,-35 29,-418 28,-1600l-1,-1271l26,-19l26,-19l3,-209c3,-132 -1,-275 -10,-385c-8,-96 -15,-190 -15,-210v-35l346,1c190,1 350,6 354,11c18,18 30,252 28,520c-2,154 0,284 3,287c3,3 130,9 281,12l276,7l7,-74c3,-41 5,-99 3,-129l-3,-55l-159,-3l-159,-3l7,-77c3,-42 9,-96 12,-119l6,-41l136,-6c76,-3 185,-9 244,-12c108,-6 108,-6 117,19c5,13 15,133 22,266l12,241h1887h1887l8,-73c4,-39 10,-153 14,-253c4,-99 11,-186 15,-192c5,-9 78,-12 262,-12h254v58c0,31 3,88 7,126l6,69l-166,-7l-167,-8v124c0,87 4,130 13,142c12,16 36,18 279,20c262,2 266,2 266,-18c0,-12 4,-183 9,-381c10,-365 14,-395 49,-409c10,-4 103,-14 208,-22c177,-15 315,-14 423,2c40,6 41,7 48,51c3,25 3,207 -1,404l-7,359l35,14c19,8 40,22 47,30c10,12 13,303 12,1438c-1,783 2,1428 6,1434c5,6 55,34 113,63c150,72 169,84 253,156c86,74 122,122 171,228c48,107 60,171 60,332c-1,283 -71,459 -245,611c-91,80 -161,124 -270,168c-147,60 -239,104 -306,147c-204,129 -409,189 -643,189h-105v433c0,476 -3,507 -66,660c-62,150 -135,255 -251,362c-127,116 -353,212 -583,246c-97,15 -3031,22 -3190,8zM9970,10872c41,-13 113,-42 160,-65c70,-35 102,-59 185,-142c129,-128 178,-221 216,-410c13,-65 23,-893 11,-912c-4,-5 -39,-30 -77,-55c-74,-47 -183,-159 -281,-288c-56,-74 -130,-210 -177,-328c-58,-142 -97,-387 -97,-609c0,-120 0,-121 -22,-116c-13,3 -89,25 -170,49c-503,151 -762,185 -1378,179c-460,-4 -727,-29 -1031,-94c-110,-24 -419,-110 -501,-140c-32,-12 -64,-21 -71,-21c-17,0 -27,50 -27,143c-1,391 -164,851 -378,1064c-61,60 -83,76 -255,187l-88,56l5,438c4,449 7,489 48,592c30,75 117,222 162,272c52,58 192,139 306,178c151,50 85,49 1790,47l1595,-2zM5754,9165c79,-22 159,-58 233,-106c66,-43 193,-179 251,-268c75,-116 167,-346 196,-493c17,-81 23,-493 8,-513c-4,-6 -66,-49 -138,-98c-72,-48 -152,-105 -177,-128c-26,-22 -51,-38 -57,-34c-6,4 -10,79 -10,198c0,525 -75,796 -281,1021c-128,140 -360,295 -467,312c-24,4 -46,13 -49,20c-12,32 43,81 117,105c39,13 307,1 374,-16zM11191,9150c35,-11 73,-27 83,-35c26,-20 10,-38 -68,-77c-86,-43 -254,-155 -265,-177c-6,-10 -48,-51 -95,-90c-73,-62 -97,-91 -164,-199c-92,-148 -92,-148 -133,-312c-31,-122 -32,-131 -36,-407c-3,-156 -7,-283 -8,-283c-28,0 -214,129 -309,215l-39,35l7,177c6,175 26,360 48,458c16,73 119,296 179,386c57,87 174,194 269,247c50,28 133,55 250,81c64,14 206,5 281,-19zM5139,8839c157,-36 328,-133 427,-242c95,-104 181,-280 208,-422c30,-162 29,-119 27,-1630c-1,-445 1,-1000 5,-1232c6,-374 5,-423 -8,-428c-9,-4 -179,-3 -379,2l-364,8l4,1380c4,1506 8,1409 -51,1461c-12,12 -80,51 -150,87c-197,102 -261,159 -325,292c-34,72 -63,202 -63,283c0,45 55,200 91,259c12,19 53,57 93,84c178,126 276,146 485,98zM11797,8848c123,-65 133,-72 172,-129c23,-33 41,-62 41,-65c0,-3 11,-20 25,-38c14,-18 35,-62 47,-97c56,-163 2,-444 -114,-591c-32,-41 -96,-80 -208,-127c-140,-59 -190,-85 -212,-109l-23,-24l-2,-1216c0,-669 -5,-1295 -9,-1390l-7,-172l-366,2l-366,3l-6,1470c-4,809 -10,1490 -14,1515c-8,54 7,214 34,361c25,136 55,190 174,308c153,152 308,250 470,297c72,21 98,23 209,20c85,-2 135,-8 155,-18zM8615,7911c418,-28 521,-39 665,-73c47,-11 114,-26 150,-34c158,-36 302,-80 385,-116c50,-22 114,-50 143,-63c29,-12 72,-36 95,-52c23,-17 58,-38 77,-48c45,-23 180,-124 180,-134c0,-5 -7,-15 -17,-22c-13,-11 -82,-14 -352,-14c-185,0 -347,4 -360,8c-14,4 -144,12 -290,18c-146,6 -358,14 -471,19c-436,17 -1163,7 -1390,-20c-47,-6 -300,-13 -562,-17c-473,-6 -478,-6 -478,14c0,30 58,112 104,145c145,108 631,283 881,319c315,45 523,68 620,70c39,0 81,5 95,10c29,10 303,4 525,-10zM9780,7099c329,-8 648,-24 703,-36l28,-6l-3,-266l-3,-267l-32,-64c-18,-36 -54,-92 -80,-125c-43,-54 -62,-67 -176,-125l-128,-65l-147,-6c-81,-4 -298,-3 -482,2c-184,4 -915,5 -1625,2c-1382,-7 -1337,-8 -1450,43c-104,47 -198,135 -267,250c-46,76 -68,198 -68,378c1,147 10,204 38,227c27,22 275,36 832,49c245,6 461,12 480,14c78,6 2069,2 2380,-5zM10438,5891l83,-1l-3,-500l-2,-500h-2228h-2228l-1,38c0,20 -2,243 -5,495l-5,457l98,1c54,1 127,4 163,8c49,4 3656,6 4128,2zM5304,4622c3,-5 8,-116 12,-248c7,-225 2,-334 -14,-361c-4,-6 -51,-14 -110,-18l-103,-8l3,309c2,170 7,315 11,322c9,14 192,18 201,4zM11424,4608c8,-30 8,-522 0,-571l-7,-38l-100,3c-98,3 -101,4 -108,28c-4,14 -7,154 -8,313l-1,287h109c104,0 109,-1 115,-22z"></path><path d="M6604,4243c1,-136 1,-139 -32,-204c-17,-37 -50,-86 -73,-109c-71,-73 -79,-74 -386,-78l-272,-3l-15,-54c-28,-95 -145,-228 -223,-254c-22,-7 -120,-15 -233,-18c-127,-4 -198,-10 -202,-17c-26,-39 5,-84 125,-179c146,-117 192,-148 371,-252c321,-186 719,-353 1221,-514c248,-79 302,-93 551,-135c433,-74 732,-103 949,-92c563,29 1099,128 1570,292c309,107 361,128 520,202c285,133 469,231 588,315c121,84 422,335 413,344c-15,15 -104,25 -281,32c-174,7 -206,10 -245,29c-78,38 -147,115 -204,229c-19,39 -41,75 -48,79c-7,4 -137,9 -290,10c-277,2 -277,2 -320,27c-58,34 -127,104 -146,147c-11,25 -17,79 -20,186l-4,151l-1657,2l-1657,2z"></path></g></g></g></svg>