<svg version="1.1" xmlns="http://www.w3.org/2000/svg" xmlns:xlink="http://www.w3.org/1999/xlink" width="64px" height="64px" viewBox="0,0,256,256"><g fill="#375748" fill-rule="nonzero" stroke="none" stroke-width="1" stroke-linecap="butt" stroke-linejoin="miter" stroke-miterlimit="10" stroke-dasharray="" stroke-dashoffset="0" font-family="none" font-weight="none" font-size="none" text-anchor="none" style="mix-blend-mode: normal"><g transform="translate(0,0.002) scale(4,4)"><g id="Glyph"><path d="M52.708,20.849c0,-12.664 -8.124,-20.849 -20.708,-20.849c-12.584,0 -20.708,8.185 -20.708,20.849c0,10.556 16.311,31.747 18.175,34.118l2.278,2.928c-9.542,0.025 -17.237,1.38 -17.237,3.051c0,1.686 7.836,3.053 17.502,3.053c9.666,0 17.502,-1.367 17.502,-3.053c0,-1.672 -7.704,-3.028 -17.255,-3.051l2.292,-2.928c1.847,-2.386 18.159,-23.577 18.159,-34.118zM25.294,20.835c0,-3.604 3.002,-6.526 6.706,-6.526c3.704,0 6.706,2.922 6.706,6.526c0,3.604 -3.002,6.526 -6.706,6.526c-3.704,0 -6.706,-2.922 -6.706,-6.526z"></path></g></g></g></svg>